<svg width="34" height="33" viewBox="0 0 34 33" fill="none" xmlns="http://www.w3.org/2000/svg">
<g clip-path="url(#clip0_1_580)">
<path d="M17.1765 0C13.9577 0 10.8112 0.954483 8.13486 2.74275C5.45853 4.53101 3.37259 7.07275 2.14081 10.0465C0.909029 13.0203 0.586739 16.2926 1.2147 19.4495C1.84265 22.6065 3.39265 25.5063 5.66868 27.7823C7.94471 30.0584 10.8446 31.6083 14.0015 32.2363C17.1584 32.8643 20.4307 32.542 23.4045 31.3102C26.3783 30.0784 28.92 27.9925 30.7083 25.3161C32.4965 22.6398 33.451 19.4933 33.451 16.2745C33.4463 11.9597 31.7302 7.8229 28.6792 4.77185C25.6281 1.7208 21.4913 0.00466683 17.1765 0V0ZM17.1765 29.8366C14.4942 29.8366 11.8721 29.0412 9.6418 27.551C7.41153 26.0607 5.67324 23.9426 4.64676 21.4645C3.62027 18.9863 3.3517 16.2595 3.875 13.6287C4.39829 10.9979 5.68996 8.58135 7.58665 6.68466C9.48334 4.78797 11.8999 3.49631 14.5307 2.97301C17.1615 2.44971 19.8883 2.71829 22.3665 3.74477C24.8446 4.77125 26.9627 6.50954 28.453 8.73981C29.9432 10.9701 30.7386 13.5922 30.7386 16.2745C30.7346 19.8702 29.3045 23.3175 26.762 25.86C24.2195 28.4025 20.7722 29.8326 17.1765 29.8366V29.8366Z" fill="#48BF84"/>
<path d="M17.1765 8.13721C16.8168 8.13721 16.4719 8.28009 16.2175 8.53443C15.9632 8.78877 15.8203 9.13373 15.8203 9.49342V15.359L11.2485 18.2233C10.9428 18.4143 10.7254 18.719 10.6443 19.0702C10.5632 19.4214 10.6249 19.7905 10.8159 20.0963C11.0069 20.402 11.3115 20.6193 11.6628 20.7005C12.014 20.7816 12.3831 20.7199 12.6888 20.5289L17.8967 17.274C18.0934 17.1507 18.2552 16.979 18.3666 16.7752C18.478 16.5715 18.5352 16.3425 18.5327 16.1104V9.49342C18.5327 9.13373 18.3898 8.78877 18.1355 8.53443C17.8812 8.28009 17.5362 8.13721 17.1765 8.13721Z" fill="#48BF84"/>
</g>
<defs>
<clipPath id="clip0_1_580">
<rect width="32.549" height="32.549" fill="white" transform="translate(0.902344)"/>
</clipPath>
</defs>
</svg>
