<svg width="25" height="25" viewBox="0 0 25 33" fill="none" xmlns="http://www.w3.org/2000/svg">
<path d="M24.7726 32.549H0.360794V28.4804C0.441892 26.135 1.02099 23.8337 2.05964 21.7293C3.0983 19.6248 4.57274 17.7654 6.38507 16.2745C4.57274 14.7836 3.0983 12.9242 2.05964 10.8197C1.02099 8.71532 0.441892 6.41401 0.360794 4.06863C0.360794 2.98956 0.789452 1.95469 1.55247 1.19167C2.31548 0.428658 3.35035 0 4.42942 0L20.7039 0C21.783 0 22.8179 0.428658 23.5809 1.19167C24.3439 1.95469 24.7726 2.98956 24.7726 4.06863C24.6925 6.41187 24.1162 8.71147 23.0817 10.8155C22.0472 12.9196 20.5781 14.7802 18.7713 16.2745C20.5781 17.7688 22.0472 19.6294 23.0817 21.7335C24.1162 23.8375 24.6925 26.1371 24.7726 28.4804V32.549ZM3.07321 29.8366H22.0601V28.4804C22.0601 23.3621 18.6696 19.5945 15.8324 17.3364L14.4979 16.2745L15.8324 15.2126C18.6696 12.9545 22.0601 9.18696 22.0601 4.06863C22.0601 3.70894 21.9172 3.36398 21.6629 3.10964C21.4086 2.8553 21.0636 2.71242 20.7039 2.71242H4.42942C4.06973 2.71242 3.72477 2.8553 3.47044 3.10964C3.2161 3.36398 3.07321 3.70894 3.07321 4.06863C3.07321 9.18696 6.47458 12.9532 9.32805 15.2112L10.668 16.2745L9.32398 17.3378C6.47458 19.5959 3.07321 23.3621 3.07321 28.4804V29.8366ZM12.5911 21.6749C13.5927 22.4599 14.4797 23.3811 15.2262 24.4118H9.94648L12.5911 21.6749ZM12.5857 18.3265C10.3655 19.7817 6.57901 22.8426 5.89413 27.1242H19.2419C18.5638 22.806 14.7827 19.76 12.5857 18.3265Z" fill="#DA022B"/>
</svg>
