<svg width="34" height="33" viewBox="0 0 34 33" fill="none" xmlns="http://www.w3.org/2000/svg">
<path d="M21.4175 21.6994C30.3278 21.6506 33.5 16.931 33.5 12.884C33.4992 11.7991 33.1267 10.7473 32.4446 9.90357C31.7626 9.05988 30.8121 8.47529 29.7514 8.24715C29.9359 7.7223 30.0959 7.24084 30.2031 6.87602C30.4398 6.08257 30.4863 5.2445 30.3388 4.42972C30.1913 3.61493 29.854 2.84636 29.3541 2.18625C28.8501 1.50528 28.1929 0.95252 27.4357 0.572714C26.6784 0.192908 25.8424 -0.00327556 24.9952 4.137e-05H9.45578C8.60862 -0.00327556 7.77258 0.192908 7.01532 0.572714C6.25807 0.95252 5.60087 1.50528 5.09692 2.18625C4.59703 2.84636 4.25967 3.61493 4.11217 4.42972C3.96467 5.2445 4.01118 6.08257 4.24793 6.87602C4.35507 7.24084 4.51917 7.7223 4.69955 8.24715C3.63891 8.47529 2.68842 9.05988 2.00636 9.90357C1.3243 10.7473 0.951838 11.7991 0.950989 12.884C0.950989 16.931 4.12316 21.6506 13.0335 21.6994C13.1127 22.1111 13.154 22.5292 13.1569 22.9485V27.1242C13.1802 27.4865 13.126 27.8495 12.9979 28.1892C12.8698 28.5288 12.6708 28.8373 12.4142 29.0939C12.1575 29.3506 11.849 29.5496 11.5094 29.6777C11.1697 29.8058 10.8067 29.86 10.4445 29.8367H9.08824C8.72855 29.8367 8.3836 29.9795 8.12926 30.2339C7.87492 30.4882 7.73203 30.8332 7.73203 31.1929C7.73203 31.5525 7.87492 31.8975 8.12926 32.1518C8.3836 32.4062 8.72855 32.5491 9.08824 32.5491H25.3627C25.7224 32.5491 26.0674 32.4062 26.3217 32.1518C26.5761 31.8975 26.719 31.5525 26.719 31.1929C26.719 30.8332 26.5761 30.4882 26.3217 30.2339C26.0674 29.9795 25.7224 29.8367 25.3627 29.8367H24.0174C23.6544 29.8611 23.2903 29.8078 22.9496 29.6803C22.6088 29.5528 22.2992 29.354 22.0414 29.0973C21.7836 28.8405 21.5836 28.5317 21.4547 28.1914C21.3259 27.8512 21.2711 27.4873 21.2941 27.1242V22.9471C21.2971 22.5283 21.3384 22.1107 21.4175 21.6994ZM28.7533 10.8497C29.2928 10.8497 29.8102 11.064 30.1917 11.4456C30.5733 11.8271 30.7876 12.3445 30.7876 12.884C30.7876 15.6426 28.6054 18.5801 22.6015 18.9463C22.9018 18.5364 23.2486 18.1628 23.6349 17.8328C25.7968 15.8853 27.5197 13.5003 28.6895 10.8362C28.7112 10.8375 28.7302 10.8497 28.7533 10.8497ZM3.66341 12.884C3.66341 12.3445 3.87774 11.8271 4.25924 11.4456C4.64075 11.064 5.15819 10.8497 5.69772 10.8497C5.72078 10.8497 5.73976 10.8375 5.76146 10.8362C6.93127 13.5003 8.65424 15.8853 10.8161 17.8328C11.2024 18.1628 11.5492 18.5364 11.8495 18.9463C5.84555 18.5801 3.66341 15.6426 3.66341 12.884ZM15.2088 29.8367C15.6572 29.0038 15.8846 28.07 15.8693 27.1242V22.9485C15.874 21.5839 15.5815 20.2347 15.0122 18.9946C14.4428 17.7545 13.6103 16.6532 12.5723 15.7673C9.81453 13.1316 7.83462 9.78828 6.84914 6.10298C6.73334 5.71399 6.71106 5.30314 6.78412 4.90391C6.85718 4.50467 7.02351 4.12834 7.26957 3.80557C7.52256 3.46451 7.85231 3.18783 8.23213 2.99792C8.61194 2.80801 9.03114 2.71022 9.45578 2.71246H24.9952C25.4203 2.71085 25.8398 2.80948 26.2197 3.00034C26.5995 3.19121 26.929 3.46894 27.1814 3.81099C27.4275 4.13376 27.5938 4.5101 27.6669 4.90933C27.7399 5.30857 27.7177 5.71942 27.6018 6.10841C26.6155 9.79176 24.6356 13.1331 21.8786 15.7673C20.8408 16.6529 20.0082 17.754 19.4389 18.9938C18.8695 20.2337 18.577 21.5828 18.5817 22.9471V27.1242C18.5664 28.07 18.7938 29.0038 19.2422 29.8367H15.2088Z" fill="#FAC711"/>
</svg>
